<?xml version="1.0" encoding="UTF-8"?>
<svg width="256px" height="256px" viewBox="0 0 256 256" version="1.1" xmlns="http://www.w3.org/2000/svg" xmlns:xlink="http://www.w3.org/1999/xlink">
    <!-- Generator: Sketch 41 (35326) - http://www.bohemiancoding.com/sketch -->
    <title>maskIcon</title>
    <desc>Created with Sketch.</desc>
    <defs></defs>
    <g id="Icons" stroke="none" stroke-width="1" fill="none" fill-rule="evenodd">
        <g id="maskIcon">
            <circle id="Oval" fill="#000000" cx="128" cy="128" r="128"></circle>
            <g id="logo" transform="translate(38.000000, 79.000000)" fill="#FFFFFF">
                <polygon id="WWN-Sixth" transform="translate(153.768844, 49.000000) scale(1, -1) translate(-153.768844, -49.000000) " points="145.628141 0 180 98 161.909548 98 127.537688 0"></polygon>
                <polygon id="WWN-Fifth" transform="translate(130.580709, 40.679245) scale(1, -1) translate(-130.580709, -40.679245) " points="124.824121 0 153.768845 81.3584901 135.678392 81.3584901 107.392573 0"></polygon>
                <polygon id="WWN-Fourth" transform="translate(104.349553, 49.000000) scale(-1, 1) translate(-104.349553, -49.000000) " points="106.733669 16.6415095 83.8749857 81.3584902 101.306533 81.3584902 124.824121 16.6415095"></polygon>
                <polygon id="WWN-Third" points="78.6934673 16.6415095 55.8347846 81.3584902 73.2663317 81.3584902 96.7839192 16.6415095"></polygon>
                <polygon id="WWN-Second" points="44.3216081 0 73.2663317 81.3584901 55.1758794 81.3584901 26.890061 0"></polygon>
                <polygon id="WWN-First" points="18.1078096 0 52.5126475 98 34.4048381 98 0 0"></polygon>
            </g>
        </g>
    </g>
</svg>